# xmcd
#
# Track frame offsets: 
#        150
#        15368
#        32300
#        48183
#        66473
#        87026
#        103658
#        121913
#        142703
#        156795
#
# Disc length: 2308 seconds
#
# Revision: 0
# Processed by: cddbd v1.5.2PL0 Copyright (c) Steve Scherf et al.
# Submitted via: ExactAudioCopy v1.3
#
DISCID=6c09020a
DTITLE=Niecie - Beyond The Surface
DYEAR=2011
DGENRE=Blues Rock
TTITLE0=Draw The Line
TTITLE1=The Other Side
TTITLE2=Damn Your Eyes
TTITLE3=Rockin' A Baby
TTITLE4=Harvest For the World
TTITLE5=Not No, Hell No
TTITLE6=Skin To Skin
TTITLE7=Hard Times
TTITLE8=Live For the Music
TTITLE9=(I'm A)Roadrunner
EXTD=
EXTT0=
EXTT1=
EXTT2=
EXTT3=
EXTT4=
EXTT5=
EXTT6=
EXTT7=
EXTT8=
EXTT9=
PLAYORDER=
